<svg version="1.1" id="Layer_1" xmlns="http://www.w3.org/2000/svg" xmlns:xlink="http://www.w3.org/1999/xlink" x="0px" y="0px"
	 width="100%" viewBox="0 0 144 144" enable-background="new 0 0 144 144" xml:space="preserve">
<path fill="#C8C8C8" opacity="1.000000" stroke="none" 
	d="
M1.000000,67.000000 
	C1.000000,44.666668 1.000000,22.833334 1.000000,1.000000 
	C49.000000,1.000000 97.000000,1.000000 145.000000,1.000000 
	C145.000000,49.000000 145.000000,97.000000 145.000000,145.000000 
	C97.000000,145.000000 49.000000,145.000000 1.000000,145.000000 
	C1.000000,119.166664 1.000000,93.333336 1.000000,67.000000 
M68.519661,42.000000 
	C65.857536,42.000034 63.176830,41.809162 60.539673,42.065807 
	C58.717731,42.243111 56.955967,43.038765 55.167309,43.558102 
	C56.090336,45.179928 56.711357,47.102100 57.981224,48.378990 
	C80.859467,71.383804 103.815956,94.310791 126.756500,117.253639 
	C127.344093,117.841301 127.840805,118.673988 128.552383,118.953796 
	C130.473358,119.709167 132.487579,120.227333 134.464813,120.839622 
	C134.976517,119.037071 135.925446,117.236473 135.933502,115.431671 
	C136.034744,92.803970 135.892258,70.174721 136.092453,47.548344 
	C136.131561,43.128452 134.769577,41.866470 130.409424,41.910110 
	C110.112679,42.113277 89.812759,42.000042 68.519661,42.000000 
M72.000000,75.500000 
	C90.722191,94.222488 109.444153,112.945206 128.167297,131.666733 
	C128.991272,132.490631 129.695435,133.605850 130.692535,134.037109 
	C131.698654,134.472244 133.000473,134.223740 134.172729,134.274734 
	C134.189484,133.102707 134.531982,131.800735 134.130981,130.795334 
	C133.733200,129.797958 132.591675,129.094193 131.767761,128.270233 
	C94.088974,90.589798 56.409363,52.910187 18.728918,15.231408 
	C17.904964,14.407491 17.201183,13.265767 16.203817,12.868255 
	C15.198394,12.467532 13.896448,12.810791 12.724420,12.828084 
	C12.775987,14.000360 12.528258,15.302160 12.963683,16.308319 
	C13.395183,17.305405 14.510211,18.009565 15.334110,18.833536 
	C34.055355,37.556408 52.777790,56.278095 72.000000,75.500000 
M68.500000,12.000000 
	C59.166683,12.000000 49.833370,11.999916 40.500053,12.000040 
	C36.833389,12.000090 33.140469,11.746094 29.512379,12.120351 
	C27.960239,12.280462 26.543156,13.749833 25.064705,14.624298 
	C26.459803,15.415751 27.831402,16.254395 29.265118,16.968287 
	C29.665953,17.167875 30.249994,16.999893 30.749994,16.999895 
	C63.916653,16.999954 97.083313,16.999954 130.249969,16.999895 
	C130.749969,16.999893 131.334015,17.167875 131.734848,16.968290 
	C133.168579,16.254408 134.540176,15.415777 135.935287,14.624334 
	C134.623520,13.750148 133.375595,12.745604 131.972275,12.058381 
	C131.299896,11.729112 130.333313,12.000093 129.499985,12.000089 
	C109.499992,11.999989 89.499992,12.000005 68.500000,12.000000 
M54.501072,27.000000 
	C80.105835,26.999807 105.710831,27.041647 131.314758,26.895634 
	C132.861053,26.886814 134.398834,25.382263 135.940567,24.573687 
	C134.448227,23.716070 132.993546,22.207796 131.456696,22.118856 
	C126.153969,21.811985 120.822578,22.000023 115.502106,22.000044 
	C90.229858,22.000137 64.957367,21.957817 39.685970,22.104380 
	C38.139385,22.113348 36.601467,23.617256 35.059517,24.425592 
	C36.551594,25.283447 37.998974,26.771379 39.544132,26.881001 
	C44.176254,27.209618 48.846577,26.999720 54.501072,27.000000 
M73.500000,37.000000 
	C92.833321,36.999699 112.167160,37.056900 131.498962,36.885818 
	C132.985031,36.872665 134.456848,35.250153 135.935287,34.375675 
	C134.540192,33.584229 133.148453,32.109253 131.749481,32.102352 
	C104.250175,31.966566 76.749840,31.966564 49.250534,32.102348 
	C47.851551,32.109253 46.459816,33.584221 45.064709,34.375664 
	C46.543144,35.250141 47.997856,36.829758 49.504009,36.880436 
	C57.162010,37.138081 64.833336,36.999699 73.500000,37.000000 
z"/>
<path fill="#008071" opacity="1.000000" stroke="none" 
	d="
M69.016815,42.000000 
	C89.812759,42.000042 110.112679,42.113277 130.409424,41.910110 
	C134.769577,41.866470 136.131561,43.128452 136.092453,47.548344 
	C135.892258,70.174721 136.034744,92.803970 135.933502,115.431671 
	C135.925446,117.236473 134.976517,119.037071 134.464813,120.839615 
	C132.487579,120.227333 130.473358,119.709167 128.552383,118.953796 
	C127.840805,118.673988 127.344093,117.841301 126.756500,117.253639 
	C103.815956,94.310791 80.859467,71.383804 57.981224,48.378990 
	C56.711357,47.102100 56.090336,45.179928 55.167309,43.558102 
	C56.955967,43.038765 58.717731,42.243111 60.539673,42.065807 
	C63.176830,41.809162 65.857536,42.000034 69.016815,42.000000 
M131.000000,74.500000 
	C131.000000,65.417374 131.000000,56.334751 131.000000,47.308121 
	C108.395119,47.308121 86.536919,47.308121 65.376343,47.308121 
	C87.098953,69.029655 109.014229,90.943840 131.000000,112.928520 
	C131.000000,100.669365 131.000000,88.084686 131.000000,74.500000 
z"/>
<path fill="#008071" opacity="1.000000" stroke="none" 
	d="
M71.750000,75.250000 
	C52.777790,56.278095 34.055355,37.556408 15.334110,18.833536 
	C14.510211,18.009565 13.395183,17.305405 12.963683,16.308319 
	C12.528258,15.302160 12.775987,14.000360 12.724420,12.828084 
	C13.896448,12.810791 15.198394,12.467532 16.203817,12.868255 
	C17.201183,13.265767 17.904964,14.407491 18.728918,15.231408 
	C56.409363,52.910187 94.088974,90.589798 131.767761,128.270233 
	C132.591675,129.094193 133.733200,129.797958 134.130981,130.795334 
	C134.531982,131.800735 134.189484,133.102707 134.172729,134.274750 
	C133.000473,134.223740 131.698654,134.472244 130.692535,134.037109 
	C129.695435,133.605850 128.991272,132.490631 128.167297,131.666733 
	C109.444153,112.945206 90.722191,94.222488 71.750000,75.250000 
z"/>
<path fill="#008071" opacity="1.000000" stroke="none" 
	d="
M69.000000,12.000000 
	C89.499992,12.000005 109.499992,11.999989 129.499985,12.000089 
	C130.333313,12.000093 131.299896,11.729112 131.972275,12.058381 
	C133.375595,12.745604 134.623520,13.750148 135.935287,14.624336 
	C134.540176,15.415777 133.168579,16.254408 131.734848,16.968290 
	C131.334015,17.167875 130.749969,16.999893 130.249969,16.999895 
	C97.083313,16.999954 63.916653,16.999954 30.749994,16.999895 
	C30.249994,16.999893 29.665953,17.167875 29.265118,16.968287 
	C27.831402,16.254395 26.459803,15.415751 25.064705,14.624298 
	C26.543156,13.749833 27.960239,12.280462 29.512379,12.120351 
	C33.140469,11.746094 36.833389,12.000090 40.500053,12.000040 
	C49.833370,11.999916 59.166683,12.000000 69.000000,12.000000 
z"/>
<path fill="#008071" opacity="1.000000" stroke="none" 
	d="
M54.001534,27.000000 
	C48.846577,26.999720 44.176254,27.209618 39.544132,26.881001 
	C37.998974,26.771379 36.551594,25.283447 35.059517,24.425592 
	C36.601467,23.617256 38.139385,22.113348 39.685970,22.104380 
	C64.957367,21.957817 90.229858,22.000137 115.502106,22.000044 
	C120.822578,22.000023 126.153969,21.811985 131.456696,22.118856 
	C132.993546,22.207796 134.448227,23.716070 135.940567,24.573689 
	C134.398834,25.382263 132.861053,26.886814 131.314758,26.895634 
	C105.710831,27.041647 80.105835,26.999807 54.001534,27.000000 
z"/>
<path fill="#008071" opacity="1.000000" stroke="none" 
	d="
M73.000000,37.000000 
	C64.833336,36.999699 57.162010,37.138081 49.504009,36.880436 
	C47.997856,36.829758 46.543144,35.250141 45.064709,34.375664 
	C46.459816,33.584221 47.851551,32.109253 49.250534,32.102348 
	C76.749840,31.966564 104.250175,31.966566 131.749481,32.102352 
	C133.148453,32.109253 134.540192,33.584229 135.935287,34.375679 
	C134.456848,35.250153 132.985031,36.872665 131.498962,36.885818 
	C112.167160,37.056900 92.833321,36.999699 73.000000,37.000000 
z"/>
<path fill="#C8C8C8" opacity="1.000000" stroke="none" 
	d="
M131.000000,75.000000 
	C131.000000,88.084686 131.000000,100.669365 131.000000,112.928520 
	C109.014229,90.943840 87.098953,69.029655 65.376343,47.308121 
	C86.536919,47.308121 108.395119,47.308121 131.000000,47.308121 
	C131.000000,56.334751 131.000000,65.417374 131.000000,75.000000 
z"/>
</svg>